<?xml version="1.0" encoding="utf-8"?>
<!-- Original OpenNOW asset. Neutral account-avatar placeholder shown when a profile image is
     unavailable: a near-white disc with a head-and-shoulders bust cut out of it, so whatever sits
     behind the avatar (top bar, card, login wall) shows through the silhouette. -->
<svg xmlns="http://www.w3.org/2000/svg" width="32" height="32" viewBox="0 0 32 32">
  <defs>
    <clipPath id="disc">
      <circle cx="16" cy="16" r="16"/>
    </clipPath>
  </defs>
  <path clip-path="url(#disc)" fill="#F7F7F7" fill-rule="evenodd" d="
    M16 0 A16 16 0 1 1 16 32 A16 16 0 1 1 16 0 Z
    M17.40 4.60
    C17.65 4.67 18.47 4.83 18.90 5.00
    C19.33 5.17 19.67 5.35 20.00 5.60
    C20.33 5.85 20.63 6.10 20.90 6.50
    C21.17 6.90 21.42 7.42 21.60 8.00
    C21.78 8.58 21.93 9.33 22.00 10.00
    C22.07 10.67 22.03 11.42 22.00 12.00
    C21.97 12.58 21.83 13.25 21.80 13.50
    C21.87 13.58 22.11 13.75 22.20 14.00
    C22.29 14.25 22.35 14.67 22.35 15.00
    C22.35 15.33 22.27 15.70 22.20 16.00
    C22.12 16.30 21.95 16.67 21.90 16.80
    C21.85 16.92 21.73 17.27 21.60 17.50
    C21.47 17.73 21.28 17.98 21.10 18.20
    C20.92 18.42 20.62 18.57 20.50 18.80
    C20.38 19.03 20.43 19.27 20.40 19.60
    C20.37 19.93 20.37 20.43 20.30 20.80
    C20.23 21.17 20.07 21.57 20.00 21.80
    C19.93 22.03 19.92 22.13 19.90 22.20
    C20.05 22.28 20.32 22.40 20.80 22.70
    C21.28 23.00 22.15 23.58 22.80 24.00
    C23.45 24.42 24.15 24.87 24.70 25.20
    C25.25 25.53 25.68 25.73 26.10 26.00
    C26.52 26.27 26.88 26.53 27.20 26.80
    C27.52 27.07 27.73 27.30 28.00 27.60
    C28.27 27.90 28.60 27.53 28.80 28.60
    C29.00 29.67 29.13 33.10 29.20 34.00
    C24.80 34.00 7.20 34.00 2.80 34.00
    C2.90 33.10 3.20 29.67 3.40 28.60
    C3.60 27.53 3.75 27.90 4.00 27.60
    C4.25 27.30 4.57 27.07 4.90 26.80
    C5.23 26.53 5.57 26.27 6.00 26.00
    C6.43 25.73 6.93 25.53 7.50 25.20
    C8.07 24.87 8.75 24.42 9.40 24.00
    C10.05 23.58 10.92 23.00 11.40 22.70
    C11.88 22.40 12.15 22.28 12.30 22.20
    C12.28 22.13 12.27 22.03 12.20 21.80
    C12.13 21.57 11.98 21.17 11.90 20.80
    C11.82 20.43 11.75 19.93 11.70 19.60
    C11.65 19.27 11.72 19.03 11.60 18.80
    C11.48 18.57 11.18 18.42 11.00 18.20
    C10.82 17.98 10.67 17.73 10.50 17.50
    C10.33 17.27 10.08 16.92 10.00 16.80
    C9.93 16.67 9.70 16.30 9.60 16.00
    C9.50 15.70 9.42 15.33 9.40 15.00
    C9.38 14.67 9.43 14.25 9.50 14.00
    C9.57 13.75 9.75 13.58 9.80 13.50
    C9.75 13.25 9.57 12.58 9.50 12.00
    C9.43 11.42 9.33 10.67 9.40 10.00
    C9.47 9.33 9.65 8.58 9.90 8.00
    C10.15 7.42 10.57 6.90 10.90 6.50
    C11.23 6.10 11.57 5.85 11.90 5.60
    C12.23 5.35 12.55 5.17 12.90 5.00
    C13.25 4.83 13.82 4.67 14.00 4.60
    Z"/>
</svg>
